<?xml version="1.0" standalone="no"?>
<!DOCTYPE svg PUBLIC "-//W3C//DTD SVG 20010904//EN"
 "http://www.w3.org/TR/2001/REC-SVG-20010904/DTD/svg10.dtd">
<svg version="1.0" xmlns="http://www.w3.org/2000/svg"
 width="400.000000pt" height="266.000000pt" viewBox="0 0 400.000000 266.000000"
 preserveAspectRatio="xMidYMid meet">

<g transform="translate(0.000000,266.000000) scale(0.100000,-0.100000)"
fill="#000000" stroke="none">
<path d="M0 1710 l0 -950 25 0 c31 0 33 -17 2 -22 l-22 -3 -3 -367 -2 -368
2000 0 2000 0 0 1330 0 1330 -2000 0 -2000 0 0 -950z m2198 848 l3 -37 -58 -3
c-49 -3 -59 -6 -69 -27 -18 -36 1 -77 47 -103 21 -12 42 -31 45 -42 6 -18 7
-18 21 7 7 15 18 27 23 27 6 0 10 12 11 28 0 23 1 24 8 7 7 -19 10 -18 45 17
20 20 36 43 36 51 0 26 -30 48 -62 45 -28 -3 -30 -1 -33 35 l-2 37 54 0 53 0
-1 -92 c-2 -145 -3 -148 -76 -173 -34 -12 -67 -18 -75 -14 -7 4 -32 10 -55 14
-24 4 -46 11 -49 17 -4 6 -9 52 -11 104 l-5 94 26 0 c16 0 31 9 42 26 13 19
24 24 48 22 28 -3 31 -7 34 -40z m62 -73 c0 -9 -7 -18 -15 -21 -8 -4 -12 -10
-9 -15 3 -5 1 -9 -4 -9 -5 0 -12 14 -14 30 -4 26 -1 30 19 30 14 0 23 -6 23
-15z m-1070 -489 c0 -3 -4 -8 -10 -11 -5 -3 -10 -1 -10 4 0 6 5 11 10 11 6 0
10 -2 10 -4z m592 -68 c-9 -9 -12 -9 -12 0 0 8 -10 11 -27 7 l-28 -5 30 14
c33 16 58 5 37 -16z m-82 8 c0 -2 -9 -6 -20 -9 -11 -3 -20 -1 -20 4 0 5 9 9
20 9 11 0 20 -2 20 -4z m-482 -72 c37 -6 42 -10 42 -33 0 -18 -7 -29 -22 -36
-16 -7 -23 -19 -23 -37 0 -14 -3 -30 -7 -34 -5 -4 -8 7 -8 24 0 32 -22 62 -46
62 -7 0 -16 11 -20 25 -7 30 13 60 30 46 7 -6 31 -13 54 -17z m522 12 c0 -3
-4 -8 -10 -11 -5 -3 -10 -1 -10 4 0 6 5 11 10 11 6 0 10 -2 10 -4z m67 -10
c-4 -11 -1 -13 10 -9 10 4 14 2 9 -5 -3 -6 -2 -13 4 -17 5 -3 10 -14 10 -23 0
-11 8 -17 25 -17 28 0 35 14 8 16 -16 1 -16 2 -1 6 9 2 18 11 20 18 2 11 7 12
18 4 11 -8 12 -12 3 -16 -7 -2 -13 -9 -13 -13 0 -5 12 -2 27 5 16 9 31 11 36
6 5 -5 16 -7 23 -4 13 5 19 -12 15 -43 -1 -6 5 -11 11 -12 7 -1 32 -5 54 -8
36 -5 43 -10 48 -35 3 -16 3 -41 0 -56 -7 -39 22 -107 43 -99 11 4 14 2 9 -9
-3 -8 -1 -15 4 -15 10 0 14 14 10 39 -1 9 4 12 15 7 9 -3 35 -6 57 -6 31 0 39
-3 35 -14 -7 -16 16 -29 29 -16 5 4 38 -6 74 -23 50 -25 66 -38 68 -56 2 -14
-3 -30 -11 -36 -9 -6 -18 -31 -21 -54 -6 -50 -13 -61 -26 -41 -6 8 -10 11 -11
5 -3 -35 -11 -60 -22 -67 -9 -6 -9 -8 1 -8 6 0 12 -4 12 -9 0 -5 -10 -7 -22
-3 -13 3 -19 1 -15 -5 7 -11 -45 -23 -102 -23 -63 0 -161 23 -161 37 0 8 -5
11 -11 7 -7 -4 -10 3 -9 17 5 53 0 94 -9 80 -5 -8 -14 -10 -21 -6 -7 4 -17 1
-22 -6 -8 -11 -9 -10 -4 4 3 9 1 17 -4 17 -6 0 -10 8 -10 18 0 12 -8 17 -31
17 -30 0 -31 -1 -25 -35 4 -19 9 -65 13 -101 5 -56 3 -67 -11 -72 -14 -5 -15
-3 -6 13 5 10 10 27 9 37 0 10 -3 13 -6 6 -2 -7 -9 -13 -15 -13 -10 0 -8 17 6
51 5 10 2 16 -8 16 -8 0 -13 -4 -10 -9 3 -4 3 -8 -1 -8 -3 0 -10 10 -15 23 -8
16 -9 10 -5 -28 6 -48 5 -51 -25 -67 -52 -29 -70 -24 -70 20 0 20 -9 57 -20
81 -11 24 -20 49 -20 57 0 15 -12 24 -41 29 -21 4 -21 2 -15 -63 4 -37 11 -71
17 -76 12 -13 12 -29 -1 -21 -5 3 -12 -12 -16 -35 -4 -22 -8 -40 -10 -40 -2 0
-15 12 -31 26 -26 24 -36 25 -75 9 -16 -6 -18 -1 -18 47 0 42 -4 56 -20 66
-23 14 -25 10 -9 -19 6 -13 8 -42 3 -77 l-7 -57 -18 40 c-22 49 -24 35 -4 -31
9 -30 11 -50 5 -52 -6 -2 -7 -8 -4 -14 4 -6 -3 -5 -15 2 -38 20 -46 52 -32
140 20 131 34 163 87 188 46 22 64 22 64 -2 0 -7 11 -18 25 -24 33 -15 32 -6
-5 25 -16 13 -30 31 -30 38 0 17 32 29 40 14 9 -14 21 -14 29 0 5 8 15 7 34
-2 29 -13 35 -35 15 -56 -11 -11 -6 -12 27 -7 65 11 74 29 73 159 0 117 -10
153 -48 180 -11 7 -17 16 -14 20 3 3 3 11 -1 17 -6 9 -10 9 -16 -1 -7 -11 -9
-10 -9 5 0 13 5 17 20 13 11 -3 20 -1 20 4 0 9 31 49 38 49 2 0 2 -7 -1 -14z
m997 -5 c9 -8 16 -24 16 -37 0 -18 -6 -23 -32 -26 -29 -3 -34 -7 -38 -38 -4
-26 -9 -34 -23 -32 -17 3 -25 -22 -9 -31 4 -2 1 -2 -6 -1 -7 2 -16 -4 -19 -12
-4 -11 -12 -1 -24 32 -10 26 -17 49 -16 51 2 1 18 -1 35 -6 34 -10 48 -1 38
24 -3 9 -18 15 -36 15 -35 0 -40 21 -15 58 13 18 24 21 65 19 26 -2 55 -9 64
-16z m-1254 -55 c0 -3 -4 -8 -10 -11 -5 -3 -10 -1 -10 4 0 6 5 11 10 11 6 0
10 -2 10 -4z m1778 -23 c-2 -22 -9 -29 -30 -31 -23 -3 -28 -8 -28 -31 l0 -29
38 13 c20 7 38 12 40 10 2 -2 0 -19 -3 -39 -7 -34 -8 -35 -28 -21 -12 8 -31
15 -44 15 -17 0 -22 7 -25 33 -2 24 -8 33 -25 35 -16 2 -23 10 -23 26 0 17 8
25 38 33 20 6 50 11 65 12 25 1 28 -2 25 -26z m-1031 -13 c12 -23 11 -25 -14
-30 -39 -7 -42 -30 -3 -30 30 0 31 -1 24 -37 -7 -43 -39 -83 -64 -83 -26 0
-70 46 -70 74 0 13 -3 31 -6 40 -5 12 1 14 31 9 30 -5 37 -3 33 8 -3 8 -11 15
-19 15 -8 1 -20 2 -26 3 -17 1 -17 33 -1 49 8 8 32 12 58 10 36 -2 47 -8 57
-28z m-870 -2 c-3 -8 -6 -5 -6 6 -1 11 2 17 5 13 3 -3 4 -12 1 -19z m-247 -23
c0 -12 -9 -30 -19 -39 -19 -17 -20 -17 -30 3 -6 11 -11 30 -11 44 0 21 4 23
30 19 23 -3 30 -9 30 -27z m88 -2 c5 -2 -22 -43 -29 -43 -4 0 -9 15 -11 34 -3
31 -2 33 17 22 11 -6 21 -12 23 -13z m1534 -26 c-14 -27 -22 -33 -30 -25 -7 7
-12 22 -12 34 0 17 7 23 28 26 15 2 28 3 30 2 2 -1 -5 -18 -16 -37z m-165 1
c-3 -7 -5 -2 -5 12 0 14 2 19 5 13 2 -7 2 -19 0 -25z m-2360 0 c-3 -8 -6 -5
-6 6 -1 11 2 17 5 13 3 -3 4 -12 1 -19z m399 5 c49 -16 67 -30 58 -45 -3 -4
-16 -8 -30 -8 -21 0 -24 -4 -23 -37 0 -21 3 -32 6 -25 2 6 16 12 30 12 18 0
24 -5 21 -17 -4 -21 -67 -26 -75 -6 -4 10 -11 9 -34 -2 -26 -14 -29 -14 -39 4
-14 26 -13 41 3 37 57 -18 67 -17 67 9 0 20 -6 27 -30 32 -36 7 -44 16 -35 43
8 24 18 25 81 3z m919 -23 c-3 -5 -14 -10 -23 -10 -15 0 -15 2 -2 10 20 13 33
13 25 0z m1815 -4 c0 -8 -4 -18 -10 -21 -5 -3 -10 3 -10 14 0 12 5 21 10 21 6
0 10 -6 10 -14z m-1639 -6 c27 -15 24 -40 -5 -40 -27 0 -43 -28 -22 -36 8 -3
24 0 37 6 21 12 21 11 14 -16 -4 -16 -7 -37 -7 -46 0 -10 -5 -18 -13 -18 -7 0
-16 -7 -19 -16 -4 -10 -15 -14 -33 -12 -20 2 -32 14 -49 48 -31 60 -31 72 2
60 30 -12 45 -5 37 16 -3 10 -13 14 -25 11 -24 -7 -35 18 -18 38 14 17 72 20
101 5z m562 -5 c-3 -9 -8 -14 -10 -11 -3 3 -2 9 2 15 9 16 15 13 8 -4z m907
-20 c0 -7 -7 -16 -15 -19 -20 -7 -33 23 -14 34 16 10 29 4 29 -15z m-2065 -5
c3 -5 1 -10 -4 -10 -6 0 -11 5 -11 10 0 6 2 10 4 10 3 0 8 -4 11 -10z m-625
-36 c0 -8 -4 -12 -10 -9 -5 3 -10 13 -10 21 0 8 5 12 10 9 6 -3 10 -13 10 -21z
m997 20 c-3 -3 -12 -4 -19 -1 -8 3 -5 6 6 6 11 1 17 -2 13 -5z m1188 -4 c18
-8 17 -9 -7 -9 -16 -1 -28 4 -28 9 0 12 8 12 35 0z m-1637 -26 c6 4 25 0 42
-9 19 -10 46 -14 72 -12 l42 4 -29 -23 c-20 -16 -25 -24 -14 -24 8 0 20 5 26
11 15 15 28 -30 19 -65 -3 -13 4 -51 16 -87 16 -45 22 -88 22 -146 1 -59 4
-84 14 -88 19 -7 5 -24 -32 -41 l-31 -15 38 4 c20 1 37 1 37 -2 0 -3 -12 -17
-27 -33 -27 -29 -26 -51 2 -28 18 15 27 8 32 -20 3 -18 -3 -20 -50 -20 -28 0
-72 -5 -97 -11 -31 -7 -46 -7 -48 0 -5 14 -39 14 -47 1 -8 -13 -42 -13 -50 0
-10 16 8 35 33 35 12 0 22 4 21 9 0 5 5 12 12 17 9 5 5 11 -14 20 -15 7 -29
20 -32 31 -4 10 -11 18 -16 18 -5 0 -9 7 -9 15 0 8 3 15 8 15 4 0 8 14 9 30 1
17 -2 30 -8 30 -6 0 -8 4 -4 9 3 6 -3 14 -12 20 -15 9 -14 11 12 11 29 1 29 2
8 12 -27 13 -27 16 -8 110 9 40 13 84 10 97 -4 14 1 33 11 48 12 19 14 37 10
67 -6 37 -6 39 7 22 8 -10 19 -16 25 -12z m539 -26 c-3 -8 -6 -5 -6 6 -1 11 2
17 5 13 3 -3 4 -12 1 -19z m1033 -9 c0 -11 -4 -18 -10 -14 -5 3 -7 12 -3 20 7
21 13 19 13 -6z m120 6 c0 -9 -59 -35 -80 -35 -12 0 -20 7 -20 16 0 10 6 14
15 10 8 -3 25 -1 37 4 26 10 48 12 48 5z m714 -34 c86 -15 124 -34 138 -69 15
-39 23 -176 9 -167 -6 3 -11 19 -11 35 0 23 -4 28 -16 23 -13 -5 -14 1 -10 33
5 29 4 34 -3 19 -5 -11 -10 -33 -10 -48 -1 -24 -3 -26 -20 -17 -30 16 -39 12
-33 -15 3 -19 -1 -27 -19 -34 -13 -5 -19 -10 -13 -10 25 -2 0 -49 -37 -72 -21
-13 -39 -27 -39 -32 0 -4 -12 -4 -27 -1 l-28 7 30 -33 c17 -17 41 -36 54 -41
17 -7 21 -13 14 -20 -8 -8 -25 -3 -57 16 -25 15 -49 31 -52 36 -3 5 -10 9 -16
9 -6 0 7 -17 30 -38 23 -22 42 -42 42 -45 0 -4 -11 -7 -25 -7 l-25 0 20 -20
c11 -11 25 -20 31 -20 20 0 -10 -28 -38 -35 -14 -3 -23 -8 -21 -11 3 -2 19 1
36 7 22 7 36 7 49 0 14 -8 15 -10 3 -11 -13 0 -13 -1 0 -10 12 -8 12 -10 -3
-16 -9 -3 -17 -13 -17 -21 0 -9 -15 -2 -42 21 -42 36 -68 46 -68 25 0 -7 8
-18 18 -26 16 -14 16 -14 0 -9 -10 3 -18 1 -18 -4 0 -6 11 -10 25 -10 33 0 76
-21 72 -34 -3 -6 -11 -9 -18 -8 -8 2 -38 6 -66 9 -38 4 -53 10 -53 21 0 10 -7
13 -25 9 -17 -3 -24 0 -22 7 2 6 14 10 26 8 18 -2 21 2 16 18 -5 16 -2 20 16
20 18 0 20 3 11 12 -9 9 -16 8 -30 -5 -21 -19 -42 -22 -42 -7 0 6 5 10 11 10
5 0 7 5 3 11 -4 7 2 19 14 28 22 17 41 71 25 71 -5 0 -24 -16 -43 -35 -19 -19
-40 -35 -47 -35 -20 0 -15 27 5 32 10 3 33 29 51 59 26 45 28 49 7 27 -20 -22
-25 -24 -30 -12 -3 9 -3 26 0 40 5 18 2 24 -9 24 -18 0 -49 39 -41 52 3 4 -6
8 -19 8 -35 0 -39 10 -14 32 l22 19 -29 -6 c-26 -5 -28 -4 -17 9 11 13 11 16
0 16 -9 1 -8 5 5 15 19 14 19 15 -7 15 -20 0 -27 5 -27 20 0 12 7 20 18 20 9
0 24 5 32 11 11 7 6 9 -23 7 -35 -2 -56 10 -57 35 0 12 89 49 127 52 28 3 33
1 29 -12 -7 -18 31 -52 60 -53 12 0 27 7 34 15 7 8 21 15 31 15 19 0 44 34 35
49 -3 4 0 20 7 34 10 22 14 24 27 13 8 -7 46 -18 84 -25z m-2951 -35 c3 -7 29
-25 58 -40 47 -23 55 -24 74 -12 20 13 23 10 68 -83 57 -116 71 -187 67 -355
-1 -83 1 -116 9 -112 6 4 11 3 11 -2 0 -31 -120 -84 -167 -73 -20 4 -29 13
-31 31 l-4 25 26 -24 c25 -24 26 -24 47 -5 20 18 21 26 17 199 -4 152 -8 190
-27 245 -12 36 -21 78 -19 95 2 22 -2 31 -16 33 -23 5 -46 -15 -30 -26 6 -4
11 -29 11 -57 0 -27 2 -102 6 -165 8 -126 2 -121 -33 30 -12 52 -37 136 -56
186 -19 51 -34 99 -34 108 0 20 16 21 23 2z m314 -8 c-3 -8 -6 -5 -6 6 -1 11
2 17 5 13 3 -3 4 -12 1 -19z m2488 2 c3 -5 -1 -10 -10 -10 -8 0 -18 -7 -21
-15 -7 -18 -55 -20 -51 -3 6 31 67 51 82 28z m-1343 -182 c3 -7 1 -24 -3 -38
-4 -14 -7 -20 -8 -13 -1 6 -8 19 -17 27 -8 9 -12 20 -9 26 9 14 32 13 37 -2z
m1644 -76 c-8 -9 -19 -13 -22 -9 -4 4 1 15 12 26 23 22 33 6 10 -17z m-1501
-28 c39 -4 114 -7 167 -5 85 3 100 1 126 -18 l29 -20 -5 -123 c-5 -117 -6
-124 -33 -150 -26 -26 -33 -28 -111 -28 -46 0 -130 5 -188 11 -151 17 -151 18
-140 185 8 114 12 131 31 147 12 9 29 15 38 13 9 -2 48 -8 86 -12z m1472 -39
c0 -8 -4 -12 -9 -9 -5 3 -6 10 -3 15 9 13 12 11 12 -6z m86 -62 c-7 -2 -21 -2
-30 0 -10 3 -4 5 12 5 17 0 24 -2 18 -5z m49 -45 c-7 -7 -12 -8 -12 -2 0 14
12 26 19 19 2 -3 -1 -11 -7 -17z m-2262 1 c0 -7 10 -9 25 -6 23 4 29 -2 63
-72 37 -76 72 -126 72 -102 0 8 12 4 32 -10 18 -13 26 -25 19 -27 -20 -7 8
-32 35 -32 12 0 26 -4 29 -10 3 -5 1 -10 -5 -10 -20 0 -80 32 -80 42 0 5 -4 7
-9 4 -5 -3 -14 1 -21 9 -7 8 -18 15 -24 15 -6 0 -26 13 -43 28 -18 15 -43 35
-55 45 -15 12 -19 20 -11 23 9 4 7 15 -7 40 -11 19 -16 34 -12 34 4 0 -1 5
-10 11 -19 11 -24 29 -8 29 6 0 10 -5 10 -11z m429 -12 c12 -16 -4 -37 -28
-37 -11 0 -10 4 5 15 11 8 14 15 7 15 -7 0 -13 5 -13 10 0 14 16 12 29 -3z
m-904 -17 c3 -5 2 -10 -4 -10 -5 0 -13 5 -16 10 -3 6 -2 10 4 10 5 0 13 -4 16
-10z m890 -42 c14 -6 25 -14 25 -18 0 -4 -23 -31 -50 -59 -30 -31 -48 -57 -44
-64 4 -7 4 -9 -1 -5 -4 4 -13 2 -19 -5 -7 -9 -21 -11 -41 -6 -16 3 -23 7 -14
8 18 1 93 70 95 86 1 18 16 75 20 75 2 0 15 -5 29 -12z m1805 2 c0 -5 -7 -10
-16 -10 -8 0 -12 5 -9 10 3 6 10 10 16 10 5 0 9 -4 9 -10z m6 -67 c-19 -10
-31 -11 -46 -3 -11 6 -20 12 -20 13 0 1 21 2 46 3 46 1 46 1 20 -13z m54 -24
c0 -11 -61 -40 -82 -38 -10 0 -10 2 1 6 11 5 11 7 0 14 -10 6 -5 9 16 9 17 0
37 5 45 10 19 12 20 12 20 -1z m-502 -61 c-6 -18 -28 -21 -28 -4 0 9 7 16 16
16 9 0 14 -5 12 -12z m72 -21 c0 -5 8 -3 17 4 12 10 15 11 9 1 -11 -18 12 -42
40 -42 15 0 24 -6 24 -16 0 -12 -6 -15 -26 -10 -62 16 -84 18 -84 8 0 -6 -16
-6 -47 0 -46 10 -81 27 -52 25 40 -1 60 4 56 16 -2 6 0 20 5 29 7 15 13 16 33
6 14 -6 25 -16 25 -21z m383 11 c-2 -5 -3 -19 -3 -33 0 -21 -5 -25 -30 -25
-32 0 -38 16 -19 51 10 19 58 25 52 7z m-529 -37 c3 -4 -6 -7 -20 -5 -35 3
-43 14 -11 14 14 0 28 -4 31 -9z m93 -47 c-3 -3 -12 -4 -19 -1 -8 3 -5 6 6 6
11 1 17 -2 13 -5z m43 -34 c0 -5 -9 -10 -20 -10 -11 0 -20 5 -20 10 0 6 9 10
20 10 11 0 20 -4 20 -10z m115 0 c4 -6 -6 -10 -22 -9 -25 0 -26 1 -8 9 11 5
21 9 22 9 1 1 5 -3 8 -9z m42 4 c-3 -3 -12 -4 -19 -1 -8 3 -5 6 6 6 11 1 17
-2 13 -5z m-220 -10 c-3 -3 -12 -4 -19 -1 -8 3 -5 6 6 6 11 1 17 -2 13 -5z
m-2602 -44 c-3 -5 -14 -10 -23 -9 -14 0 -13 2 3 9 27 11 27 11 20 0z m-349
-72 c-3 -13 -6 -26 -6 -30 0 -5 -7 -8 -17 -8 -9 0 -13 3 -10 7 4 3 -1 12 -11
19 -15 12 -15 15 -2 24 8 5 23 10 34 10 14 0 17 -5 12 -22z m1459 -453 c0 -23
-5 -31 -22 -33 -20 -3 -23 1 -23 33 0 32 3 36 23 33 17 -2 22 -10 22 -33z m73
-1 c-1 -31 -3 -34 -13 -20 -16 21 -22 20 -28 -1 -3 -10 -5 -1 -6 20 -1 33 2
37 24 37 22 0 24 -4 23 -36z m60 29 c-10 -2 -18 -9 -18 -14 0 -5 8 -10 18 -10
16 -1 16 -2 0 -6 -10 -2 -18 -8 -18 -13 0 -5 8 -11 18 -13 10 -3 6 -5 -10 -6
-25 -1 -28 2 -28 34 0 32 3 35 28 34 16 -1 20 -3 10 -6z m82 0 c0 -5 -7 -17
-16 -28 -13 -18 -13 -20 3 -27 14 -5 11 -7 -10 -7 -27 -1 -27 -1 -12 28 14 27
13 30 -3 34 -10 3 -6 5 11 6 15 0 27 -2 27 -6z m60 -19 c14 -36 13 -39 -19
-40 -28 -1 -28 0 -18 33 12 40 24 42 37 7z m67 -18 c-4 -9 -13 -12 -26 -9 -26
7 -26 12 -3 29 20 15 38 3 29 -20z"/>
<path d="M1777 1796 c-4 -10 -1 -13 8 -9 8 3 12 9 9 14 -7 12 -11 11 -17 -5z"/>
<path d="M2384 1395 c-9 -18 -9 -25 1 -29 16 -6 24 13 16 36 -5 15 -8 14 -17
-7z"/>
<path d="M1505 1308 c4 -13 11 -27 16 -33 5 -5 4 5 -2 23 -12 36 -24 44 -14
10z"/>
<path d="M2216 1274 c-7 -19 1 -34 19 -34 15 0 24 19 18 38 -6 17 -30 15 -37
-4z m24 -10 c0 -8 -5 -12 -10 -9 -6 4 -8 11 -5 16 9 14 15 11 15 -7z"/>
<path d="M2226 1668 c3 -4 12 -8 20 -8 8 0 14 4 14 8 0 4 -9 8 -19 8 -11 0
-17 -4 -15 -8z"/>
<path d="M2235 1639 c18 -5 33 -5 39 1 7 7 -4 10 -29 9 -40 -1 -40 -1 -10 -10z"/>
<path d="M1725 1580 c-16 -7 -17 -9 -3 -9 9 -1 20 4 23 9 7 11 7 11 -20 0z"/>
<path d="M1692 1552 c13 -15 60 -13 65 3 1 6 -15 10 -37 10 -32 1 -37 -2 -28
-13z"/>
<path d="M1080 1560 c0 -5 7 -10 16 -10 8 0 12 5 9 10 -3 6 -10 10 -16 10 -5
0 -9 -4 -9 -10z"/>
<path d="M1133 1543 c9 -2 17 -9 17 -14 0 -5 5 -9 11 -9 8 0 8 5 -1 15 -7 8
-20 14 -29 14 -13 -1 -13 -2 2 -6z"/>
<path d="M1185 1160 c3 -5 8 -10 11 -10 2 0 4 5 4 10 0 6 -5 10 -11 10 -5 0
-7 -4 -4 -10z"/>
<path d="M1228 1083 c6 -2 18 -2 25 0 6 3 1 5 -13 5 -14 0 -19 -2 -12 -5z"/>
<path d="M1135 1040 c-3 -5 -2 -10 4 -10 5 0 13 5 16 10 3 6 2 10 -4 10 -5 0
-13 -4 -16 -10z"/>
<path d="M1050 1026 c0 -2 7 -7 16 -10 8 -3 12 -2 9 4 -6 10 -25 14 -25 6z"/>
<path d="M2092 1093 c2 -10 10 -18 18 -18 8 0 16 8 18 18 2 12 -3 17 -18 17
-15 0 -20 -5 -18 -17z"/>
<path d="M1545 970 c-3 -5 -2 -10 4 -10 5 0 13 5 16 10 3 6 2 10 -4 10 -5 0
-13 -4 -16 -10z"/>
<path d="M1750 170 c0 -5 5 -10 10 -10 6 0 10 5 10 10 0 6 -4 10 -10 10 -5 0
-10 -4 -10 -10z"/>
<path d="M1750 140 c0 -5 7 -10 15 -10 8 0 15 5 15 10 0 6 -7 10 -15 10 -8 0
-15 -4 -15 -10z"/>
<path d="M1820 170 c0 -5 7 -10 15 -10 8 0 15 5 15 10 0 6 -7 10 -15 10 -8 0
-15 -4 -15 -10z"/>
</g>
</svg>
