<?xml version="1.0" encoding="UTF-8"?>
<!DOCTYPE svg PUBLIC "-//W3C//DTD SVG 1.1//EN" "http://www.w3.org/Graphics/SVG/1.1/DTD/svg11.dtd">
<svg xmlns="http://www.w3.org/2000/svg" version="1.1" width="225px" height="224px" style="shape-rendering:geometricPrecision; text-rendering:geometricPrecision; image-rendering:optimizeQuality; fill-rule:evenodd; clip-rule:evenodd" xmlns:xlink="http://www.w3.org/1999/xlink">
<g><path style="opacity:1" fill="#fcfcfc" d="M -0.5,-0.5 C 74.5,-0.5 149.5,-0.5 224.5,-0.5C 224.5,74.1667 224.5,148.833 224.5,223.5C 149.5,223.5 74.5,223.5 -0.5,223.5C -0.5,148.833 -0.5,74.1667 -0.5,-0.5 Z"/></g>
<g><path style="opacity:1" fill="#111111" d="M 123.5,8.5 C 128.96,10.1979 134.627,11.5312 140.5,12.5C 189.238,31.4406 211.738,67.1072 208,119.5C 199.224,166.943 171.057,195.11 123.5,204C 76.5431,207.109 42.7098,187.609 22,145.5C 5.08841,100.027 14.5884,61.1937 50.5,29C 72.0651,12.6632 96.3984,5.82983 123.5,8.5 Z"/></g>
<g><path style="opacity:1" fill="#969696" d="M 123.5,8.5 C 129.599,8.4059 135.265,9.73923 140.5,12.5C 134.627,11.5312 128.96,10.1979 123.5,8.5 Z"/></g>
<g><path style="opacity:1" fill="#2a2a2a" d="M 197.5,91.5 C 196.833,92.1667 196.167,92.8333 195.5,93.5C 191.272,63.626 175.605,42.2926 148.5,29.5C 137.171,22.9185 124.838,19.9185 111.5,20.5C 98.6641,20.0458 86.6641,22.7125 75.5,28.5C 73.847,28.6596 72.5137,29.3263 71.5,30.5C 46.6537,44.3531 31.987,65.3531 27.5,93.5C 26.8333,92.5 26.1667,91.5 25.5,90.5C 34.4768,51.0235 58.8101,27.1902 98.5,19C 142.549,15.9267 174.049,34.0934 193,73.5C 194.819,79.4409 196.319,85.4409 197.5,91.5 Z"/></g>
<g><path style="opacity:1" fill="#f7f7f7" d="M 148.5,29.5 C 175.605,42.2926 191.272,63.626 195.5,93.5C 187.833,93.5 180.167,93.5 172.5,93.5C 169.552,78.1049 161.886,65.6049 149.5,56C 146.102,54.6429 143.102,52.8096 140.5,50.5C 140.063,48.9256 139.063,47.7589 137.5,47C 139.962,45.7844 142.629,45.1177 145.5,45C 146.056,44.6174 146.389,44.1174 146.5,43.5C 146.662,41.4727 146.495,39.4727 146,37.5C 144.028,36.6948 142.528,35.3615 141.5,33.5C 141.833,33.1667 142.167,32.8333 142.5,32.5C 144.173,34.0863 146.173,34.7529 148.5,34.5C 148.737,33.209 148.404,32.209 147.5,31.5C 147.328,30.5084 147.662,29.8417 148.5,29.5 Z"/></g>
<g><path style="opacity:1" fill="#f7f7f7" d="M 108.5,40.5 C 109.919,41.4511 111.585,41.7845 113.5,41.5C 113.5,37.5 113.5,33.5 113.5,29.5C 114.822,29.33 115.989,29.6634 117,30.5C 117.333,33.1667 117.667,35.8333 118,38.5C 118.383,39.056 118.883,39.3893 119.5,39.5C 120.5,39.8333 121.167,40.5 121.5,41.5C 116.363,42.0678 111.363,42.7344 106.5,43.5C 81.4845,46.596 63.6511,59.596 53,82.5C 51.4383,86.0145 50.605,89.6811 50.5,93.5C 42.8333,93.5 35.1667,93.5 27.5,93.5C 31.987,65.3531 46.6537,44.3531 71.5,30.5C 72.1667,31.5 72.8333,32.5 73.5,33.5C 74.0007,37.3515 75.3341,40.8515 77.5,44C 81.8723,45.4186 85.2057,44.2519 87.5,40.5C 88.5,39.8333 89.5,39.1667 90.5,38.5C 90.3838,41.9103 92.0504,43.2436 95.5,42.5C 95.5,40.5 95.5,38.5 95.5,36.5C 98.1951,36.3185 100.528,35.3185 102.5,33.5C 103.434,32.4324 103.768,31.099 103.5,29.5C 104.833,29.5 106.167,29.5 107.5,29.5C 107.185,33.3714 107.518,37.0381 108.5,40.5 Z"/></g>
<g><path style="opacity:1" fill="#101010" d="M 106.5,43.5 C 118.501,42.7667 129.835,45.1001 140.5,50.5C 143.102,52.8096 146.102,54.6429 149.5,56C 161.886,65.6049 169.552,78.1049 172.5,93.5C 180.167,93.5 187.833,93.5 195.5,93.5C 196.167,92.8333 196.833,92.1667 197.5,91.5C 198.434,92.5676 198.768,93.901 198.5,95.5C 198.673,104.195 198.34,112.862 197.5,121.5C 197.5,121.833 197.5,122.167 197.5,122.5C 196.833,121.5 196.167,120.5 195.5,119.5C 187.804,119.169 180.138,119.503 172.5,120.5C 164.869,147.631 147.202,163.798 119.5,169C 84.0155,170.693 61.0155,154.526 50.5,120.5C 42.8622,119.503 35.1955,119.169 27.5,119.5C 26.8333,120.5 26.1667,121.5 25.5,122.5C 25.5405,119.119 25.2071,115.786 24.5,112.5C 24.5,105.5 24.5,98.5 24.5,91.5C 25.1667,91.5 25.5,91.1667 25.5,90.5C 26.1667,91.5 26.8333,92.5 27.5,93.5C 35.1667,93.5 42.8333,93.5 50.5,93.5C 50.605,89.6811 51.4383,86.0145 53,82.5C 63.6511,59.596 81.4845,46.596 106.5,43.5 Z"/></g>
<g><path style="opacity:1" fill="#dedede" d="M 21.5,114.5 C 21.2534,107.112 21.7534,99.779 23,92.5C 23.1717,99.346 23.6717,106.013 24.5,112.5C 25.2071,115.786 25.5405,119.119 25.5,122.5C 36.6213,166.294 64.6213,190.294 109.5,194.5C 156.575,192.084 185.909,168.084 197.5,122.5C 197.5,122.167 197.5,121.833 197.5,121.5C 199.046,116.767 199.713,111.767 199.5,106.5C 199.499,102.651 199.165,98.9841 198.5,95.5C 198.768,93.901 198.434,92.5676 197.5,91.5C 196.319,85.4409 194.819,79.4409 193,73.5C 174.049,34.0934 142.549,15.9267 98.5,19C 58.8101,27.1902 34.4768,51.0235 25.5,90.5C 25.5,91.1667 25.1667,91.5 24.5,91.5C 23.5318,89.3926 23.1984,87.0593 23.5,84.5C 32.0004,53.8268 51.0004,32.3268 80.5,20C 121.713,8.15937 156.213,18.326 184,50.5C 209.413,89.6123 208.413,127.946 181,165.5C 149.943,198.113 113.443,205.946 71.5,189C 41.9532,172.721 25.2866,147.888 21.5,114.5 Z"/></g>
<g><path style="opacity:1" fill="#161616" d="M 147.5,31.5 C 148.404,32.209 148.737,33.209 148.5,34.5C 146.173,34.7529 144.173,34.0863 142.5,32.5C 142.167,32.8333 141.833,33.1667 141.5,33.5C 142.528,35.3615 144.028,36.6948 146,37.5C 146.495,39.4727 146.662,41.4727 146.5,43.5C 143.555,44.4675 140.555,44.6342 137.5,44C 135.963,42.8904 135.297,41.3904 135.5,39.5C 137.57,39.4486 139.403,40.1153 141,41.5C 141.5,41.1667 142,40.8333 142.5,40.5C 140.471,38.1415 138.471,35.8082 136.5,33.5C 139.003,27.4985 142.669,26.8318 147.5,31.5 Z"/></g>
<g><path style="opacity:1" fill="#6c6c6c" d="M 75.5,28.5 C 76.968,29.7791 77.6347,31.4458 77.5,33.5C 76.596,32.791 76.2627,31.791 76.5,30.5C 75.5,30.5 74.5,30.5 73.5,30.5C 73.5,31.5 73.5,32.5 73.5,33.5C 72.8333,32.5 72.1667,31.5 71.5,30.5C 72.5137,29.3263 73.847,28.6596 75.5,28.5 Z"/></g>
<g><path style="opacity:1" fill="#171717" d="M 86.5,30.5 C 87.2071,33.7861 87.5405,37.1194 87.5,40.5C 85.2057,44.2519 81.8723,45.4186 77.5,44C 75.3341,40.8515 74.0007,37.3515 73.5,33.5C 73.5,32.5 73.5,31.5 73.5,30.5C 74.5,30.5 75.5,30.5 76.5,30.5C 76.2627,31.791 76.596,32.791 77.5,33.5C 78.1847,35.4144 78.6847,37.4144 79,39.5C 80.3561,40.3802 81.8561,40.7135 83.5,40.5C 82.9492,37.1933 82.6159,33.8599 82.5,30.5C 82.4701,29.5028 82.9701,28.8361 84,28.5C 85.0111,29.0556 85.8444,29.7222 86.5,30.5 Z"/></g>
<g><path style="opacity:1" fill="#222222" d="M 102.5,33.5 C 100.528,35.3185 98.1951,36.3185 95.5,36.5C 95.5,38.5 95.5,40.5 95.5,42.5C 92.0504,43.2436 90.3838,41.9103 90.5,38.5C 90.3542,34.4809 90.0209,30.4809 89.5,26.5C 93.7379,24.8794 97.7379,25.2127 101.5,27.5C 102.466,29.396 102.799,31.396 102.5,33.5 Z"/></g>
<g><path style="opacity:1" fill="#e2e2e2" d="M 148.5,29.5 C 147.662,29.8417 147.328,30.5084 147.5,31.5C 142.669,26.8318 139.003,27.4985 136.5,33.5C 138.471,35.8082 140.471,38.1415 142.5,40.5C 142,40.8333 141.5,41.1667 141,41.5C 139.403,40.1153 137.57,39.4486 135.5,39.5C 135.297,41.3904 135.963,42.8904 137.5,44C 140.555,44.6342 143.555,44.4675 146.5,43.5C 146.389,44.1174 146.056,44.6174 145.5,45C 142.629,45.1177 139.962,45.7844 137.5,47C 139.063,47.7589 140.063,48.9256 140.5,50.5C 129.835,45.1001 118.501,42.7667 106.5,43.5C 111.363,42.7344 116.363,42.0678 121.5,41.5C 131.333,43.0017 135.333,39.0017 133.5,29.5C 128.551,24.3015 123.717,24.3015 119,29.5C 118.341,32.8881 118.508,36.2214 119.5,39.5C 118.883,39.3893 118.383,39.056 118,38.5C 117.667,35.8333 117.333,33.1667 117,30.5C 115.989,29.6634 114.822,29.33 113.5,29.5C 113.5,33.5 113.5,37.5 113.5,41.5C 111.585,41.7845 109.919,41.4511 108.5,40.5C 107.518,37.0381 107.185,33.3714 107.5,29.5C 106.167,29.5 104.833,29.5 103.5,29.5C 103.768,31.099 103.434,32.4324 102.5,33.5C 102.799,31.396 102.466,29.396 101.5,27.5C 97.7379,25.2127 93.7379,24.8794 89.5,26.5C 90.0209,30.4809 90.3542,34.4809 90.5,38.5C 89.5,39.1667 88.5,39.8333 87.5,40.5C 87.5405,37.1194 87.2071,33.7861 86.5,30.5C 86.5,29.5 86.5,28.5 86.5,27.5C 84.8333,27.5 83.1667,27.5 81.5,27.5C 81.2627,28.791 81.596,29.791 82.5,30.5C 82.6159,33.8599 82.9492,37.1933 83.5,40.5C 81.8561,40.7135 80.3561,40.3802 79,39.5C 78.6847,37.4144 78.1847,35.4144 77.5,33.5C 77.6347,31.4458 76.968,29.7791 75.5,28.5C 86.6641,22.7125 98.6641,20.0458 111.5,20.5C 124.838,19.9185 137.171,22.9185 148.5,29.5 Z"/></g>
<g><path style="opacity:1" fill="#e8e8e8" d="M 94.5,29.5 C 95.5,29.5 96.5,29.5 97.5,29.5C 97.5,30.5 97.5,31.5 97.5,32.5C 96.5,32.5 95.5,32.5 94.5,32.5C 94.5,31.5 94.5,30.5 94.5,29.5 Z"/></g>
<g><path style="opacity:1" fill="#696969" d="M 86.5,30.5 C 85.8444,29.7222 85.0111,29.0556 84,28.5C 82.9701,28.8361 82.4701,29.5028 82.5,30.5C 81.596,29.791 81.2627,28.791 81.5,27.5C 83.1667,27.5 84.8333,27.5 86.5,27.5C 86.5,28.5 86.5,29.5 86.5,30.5 Z"/></g>
<g><path style="opacity:1" fill="#1a1a1a" d="M 121.5,41.5 C 121.167,40.5 120.5,39.8333 119.5,39.5C 118.508,36.2214 118.341,32.8881 119,29.5C 123.717,24.3015 128.551,24.3015 133.5,29.5C 135.333,39.0017 131.333,43.0017 121.5,41.5 Z"/></g>
<g><path style="opacity:1" fill="#e7e7e7" d="M 123.5,29.5 C 129.313,29.062 130.98,31.562 128.5,37C 122.593,37.7465 120.927,35.2465 123.5,29.5 Z"/></g>
<g><path style="opacity:1" fill="#0e0e0e" d="M 116.5,25.5 C 116.5,26.5 116.5,27.5 116.5,28.5C 115.167,28.5 113.833,28.5 112.5,28.5C 112.5,32.5 112.5,36.5 112.5,40.5C 111.167,40.5 109.833,40.5 108.5,40.5C 108.817,36.2984 108.483,32.2984 107.5,28.5C 106.602,27.8423 105.602,27.1757 104.5,26.5C 108.445,25.5091 112.445,25.1758 116.5,25.5 Z"/></g>
<g><path style="opacity:1" fill="#686868" d="M 116.5,25.5 C 112.445,25.1758 108.445,25.5091 104.5,26.5C 105.602,27.1757 106.602,27.8423 107.5,28.5C 106.167,28.5 104.833,28.5 103.5,28.5C 103.5,27.1667 103.5,25.8333 103.5,24.5C 108.032,24.1818 112.366,24.5151 116.5,25.5 Z"/></g>
<g><path style="opacity:1" fill="#dbdbdb" d="M 99.5,50.5 C 126.159,47.7515 146.659,57.4182 161,79.5C 170.189,98.8232 169.522,117.823 159,136.5C 137.882,163.257 112.048,169.09 81.5,154C 59.4139,137.666 51.5805,116.166 58,89.5C 65.4272,69.5603 79.2606,56.5603 99.5,50.5 Z"/></g>
<g><path style="opacity:1" fill="#ababab" d="M 23.5,84.5 C 23.1984,87.0593 23.5318,89.3926 24.5,91.5C 24.5,98.5 24.5,105.5 24.5,112.5C 23.6717,106.013 23.1717,99.346 23,92.5C 21.7534,99.779 21.2534,107.112 21.5,114.5C 19.8931,104.369 20.5598,94.3691 23.5,84.5 Z"/></g>
<g><path style="opacity:1" fill="#959595" d="M 198.5,95.5 C 199.165,98.9841 199.499,102.651 199.5,106.5C 199.713,111.767 199.046,116.767 197.5,121.5C 198.34,112.862 198.673,104.195 198.5,95.5 Z"/></g>
<g><path style="opacity:1" fill="#c3c3c3" d="M 190.5,102.5 C 192.467,102.261 194.301,102.594 196,103.5C 196.507,104.996 196.007,106.163 194.5,107C 195.925,108.714 195.592,110.047 193.5,111C 191.19,111.497 188.857,111.663 186.5,111.5C 187.152,108.191 188.485,105.191 190.5,102.5 Z"/></g>
<g><path style="opacity:1" fill="#cfcfcf" d="M 178.5,102.5 C 180.5,102.833 182.5,103.167 184.5,103.5C 183.669,109.928 180.002,112.428 173.5,111C 172.446,109.612 172.28,108.112 173,106.5C 175.015,105.303 176.849,103.97 178.5,102.5 Z"/></g>
<g><path style="opacity:1" fill="#232323" d="M 179.5,104.5 C 181.225,104.843 181.725,105.843 181,107.5C 175.772,108.647 175.272,107.647 179.5,104.5 Z"/></g>
<g><path style="opacity:1" fill="#bcbcbc" d="M 29.5,102.5 C 32.1194,102.232 34.6194,102.565 37,103.5C 37.6667,104.167 37.6667,104.833 37,105.5C 35.5806,106.46 34.0806,107.293 32.5,108C 34.8856,108.284 35.5523,109.284 34.5,111C 31.5184,111.498 28.5184,111.665 25.5,111.5C 25.5,110.5 25.5,109.5 25.5,108.5C 28.5158,108.159 31.1825,106.993 33.5,105C 31.9651,104.504 30.4651,104.67 29,105.5C 28.5,105.167 28,104.833 27.5,104.5C 28.2427,103.818 28.9094,103.151 29.5,102.5 Z"/></g>
<g><path style="opacity:1" fill="#c7c7c7" d="M 43.5,102.5 C 45.861,102.674 48.1944,103.007 50.5,103.5C 50.9193,106.325 49.9193,108.491 47.5,110C 44.6074,111.149 41.6074,111.649 38.5,111.5C 38.0607,107.285 39.7274,104.285 43.5,102.5 Z"/></g>
<g><path style="opacity:1" fill="#303030" d="M 45.5,104.5 C 47.4646,104.948 47.7979,105.948 46.5,107.5C 40.1633,109.749 39.83,108.749 45.5,104.5 Z"/></g>
<g><path style="opacity:1" fill="#292929" d="M 100.5,53.5 C 132.244,50.7756 153.078,64.4423 163,94.5C 167.347,124.649 155.514,145.483 127.5,157C 96.8865,163.61 75.0532,152.776 62,124.5C 53.8634,89.4388 66.6967,65.7721 100.5,53.5 Z"/></g>
<g><path style="opacity:1" fill="#f8f9f7" d="M 102.5,55.5 C 133.848,53.3667 153.681,67.3667 162,97.5C 163.806,119.449 155.973,136.949 138.5,150C 112.788,163.449 90.288,159.283 71,137.5C 53.7685,109.715 57.6019,85.215 82.5,64C 88.7301,59.8762 95.3967,57.0429 102.5,55.5 Z"/></g>
<g><path style="opacity:1" fill="#8cdc7a" d="M 132.5,116.5 C 134.576,119.139 136.742,121.806 139,124.5C 139.483,125.448 139.649,126.448 139.5,127.5C 136.029,124.669 133.696,121.002 132.5,116.5 Z"/></g>
<g><path style="opacity:1" fill="#3cf31f" d="M 131.5,93.5 C 132.218,95.1368 132.384,96.8034 132,98.5C 130.141,99.5791 128.641,100.912 127.5,102.5C 125.499,108.154 127.166,112.821 132.5,116.5C 133.696,121.002 136.029,124.669 139.5,127.5C 142.543,128.744 143.876,131.077 143.5,134.5C 140.487,134.893 137.82,134.226 135.5,132.5C 134.247,129.734 132.747,127.067 131,124.5C 130.241,122.937 129.074,121.937 127.5,121.5C 125.206,117.873 122.54,114.539 119.5,111.5C 119.167,111.5 118.833,111.5 118.5,111.5C 118.335,108.15 118.502,104.817 119,101.5C 121.994,99.3372 124.827,97.0039 127.5,94.5C 128.689,93.5713 130.022,93.238 131.5,93.5 Z"/></g>
<g><path style="opacity:1" fill="#dc7a70" d="M 93.5,111.5 C 93.0101,113.948 93.8434,115.615 96,116.5C 98.317,115.015 100.484,113.348 102.5,111.5C 102.443,112.609 102.11,113.609 101.5,114.5C 99.7541,116.252 97.7541,117.585 95.5,118.5C 93.4747,117.481 92.1414,115.815 91.5,113.5C 91.7472,112.287 92.4138,111.62 93.5,111.5 Z"/></g>
<g><path style="opacity:1" fill="#56c1e7" d="M 117.5,111.5 C 117.833,111.5 118.167,111.5 118.5,111.5C 118.833,111.5 119.167,111.5 119.5,111.5C 121.075,114.781 122.742,118.114 124.5,121.5C 124.24,123.595 123.074,124.928 121,125.5C 117.961,122.303 114.461,119.637 110.5,117.5C 106.518,120.152 102.851,123.152 99.5,126.5C 98.3112,127.429 96.9778,127.762 95.5,127.5C 95.6495,128.552 95.4828,129.552 95,130.5C 92.5,132.333 90,134.167 87.5,136C 82.6096,136.035 81.4429,133.868 84,129.5C 88.3823,126.282 92.2156,122.615 95.5,118.5C 97.7541,117.585 99.7541,116.252 101.5,114.5C 104.579,112.411 107.746,110.411 111,108.5C 113.649,108.652 115.816,109.652 117.5,111.5 Z"/></g>
<g><path style="opacity:1" fill="#87d087" d="M 119.5,111.5 C 122.54,114.539 125.206,117.873 127.5,121.5C 126.5,121.5 125.5,121.5 124.5,121.5C 122.742,118.114 121.075,114.781 119.5,111.5 Z"/></g>
<g><path style="opacity:1" fill="#e9e8e4" d="M 107.5,101.5 C 110.807,102.051 114.14,102.384 117.5,102.5C 117.5,105.5 117.5,108.5 117.5,111.5C 115.816,109.652 113.649,108.652 111,108.5C 107.746,110.411 104.579,112.411 101.5,114.5C 102.11,113.609 102.443,112.609 102.5,111.5C 106.277,109.279 107.944,105.946 107.5,101.5 Z"/></g>
<g><path style="opacity:1" fill="#ed221f" d="M 90.5,81.5 C 91.4194,84.0892 93.086,86.0892 95.5,87.5C 97.8544,90.5211 100.521,93.1877 103.5,95.5C 104.449,97.7772 105.782,99.7772 107.5,101.5C 107.944,105.946 106.277,109.279 102.5,111.5C 100.484,113.348 98.317,115.015 96,116.5C 93.8434,115.615 93.0101,113.948 93.5,111.5C 95.2312,109.861 97.0645,108.194 99,106.5C 99.6667,105.167 99.6667,103.833 99,102.5C 93.1623,94.6634 87.329,86.8301 81.5,79C 81.7666,75.8358 83.4333,74.8358 86.5,76C 87.4118,78.2049 88.7451,80.0382 90.5,81.5 Z"/></g>
<g><path style="opacity:1" fill="#80da6e" d="M 131.5,93.5 C 133.914,94.4056 134.747,96.0722 134,98.5C 132.362,100.734 130.195,102.067 127.5,102.5C 128.641,100.912 130.141,99.5791 132,98.5C 132.384,96.8034 132.218,95.1368 131.5,93.5 Z"/></g>
<g><path style="opacity:1" fill="#f2f227" d="M 135.5,75.5 C 139.5,74.8333 141.167,76.5 140.5,80.5C 137.449,83.2241 134.449,85.8908 131.5,88.5C 125.799,92.0154 120.465,96.1821 115.5,101C 112.275,101.223 109.609,100.057 107.5,97.5C 106.262,95.3807 104.762,93.3807 103,91.5C 102.51,90.2068 102.343,88.8734 102.5,87.5C 103.552,87.3505 104.552,87.5172 105.5,88C 107.114,90.1267 109.114,91.6267 111.5,92.5C 113.035,93.7879 114.701,93.7879 116.5,92.5C 120.992,88.1766 125.659,84.0099 130.5,80C 131.793,79.51 133.127,79.3433 134.5,79.5C 134.433,78.0413 134.766,76.7079 135.5,75.5 Z"/></g>
<g><path style="opacity:1" fill="#b7d78a" d="M 131.5,88.5 C 131.047,89.4584 130.381,90.2917 129.5,91C 130.381,91.7083 131.047,92.5416 131.5,93.5C 130.022,93.238 128.689,93.5713 127.5,94.5C 124.827,97.0039 121.994,99.3372 119,101.5C 118.502,104.817 118.335,108.15 118.5,111.5C 118.167,111.5 117.833,111.5 117.5,111.5C 117.5,108.5 117.5,105.5 117.5,102.5C 114.14,102.384 110.807,102.051 107.5,101.5C 105.782,99.7772 104.449,97.7772 103.5,95.5C 104.833,96.1667 106.167,96.8333 107.5,97.5C 109.609,100.057 112.275,101.223 115.5,101C 120.465,96.1821 125.799,92.0154 131.5,88.5 Z"/></g>
<g><path style="opacity:1" fill="#d5e463" d="M 111.5,92.5 C 109.114,91.6267 107.114,90.1267 105.5,88C 104.552,87.5172 103.552,87.3505 102.5,87.5C 102.343,88.8734 102.51,90.2068 103,91.5C 104.762,93.3807 106.262,95.3807 107.5,97.5C 106.167,96.8333 104.833,96.1667 103.5,95.5C 102.403,93.2258 101.07,91.0591 99.5,89C 100.693,86.4035 102.693,85.4035 105.5,86C 107.756,88.0829 109.756,90.2496 111.5,92.5 Z"/></g>
<g><path style="opacity:1" fill="#151418" d="M 111.5,73.5 C 119.382,72.546 122.549,75.8794 121,83.5C 116.993,88.724 112.993,88.724 109,83.5C 107.861,79.5789 108.695,76.2456 111.5,73.5 Z"/></g>
<g><path style="opacity:1" fill="#e87779" d="M 90.5,81.5 C 92.914,82.9108 94.5806,84.9108 95.5,87.5C 93.086,86.0892 91.4194,84.0892 90.5,81.5 Z"/></g>
<g><path style="opacity:1" fill="#dddb81" d="M 135.5,75.5 C 137.694,74.2335 140.028,74.2335 142.5,75.5C 143.798,77.9088 143.131,79.5755 140.5,80.5C 141.167,76.5 139.5,74.8333 135.5,75.5 Z"/></g>
<g><path style="opacity:1" fill="#242424" d="M 27.5,119.5 C 35.2785,160.111 59.6118,184.278 100.5,192C 142.905,194.548 173.072,176.715 191,138.5C 193.076,132.284 194.576,125.951 195.5,119.5C 196.167,120.5 196.833,121.5 197.5,122.5C 185.909,168.084 156.575,192.084 109.5,194.5C 64.6213,190.294 36.6213,166.294 25.5,122.5C 26.1667,121.5 26.8333,120.5 27.5,119.5 Z"/></g>
<g><path style="opacity:1" fill="#f6f6f6" d="M 27.5,119.5 C 35.1955,119.169 42.8622,119.503 50.5,120.5C 61.0155,154.526 84.0155,170.693 119.5,169C 147.202,163.798 164.869,147.631 172.5,120.5C 180.138,119.503 187.804,119.169 195.5,119.5C 194.576,125.951 193.076,132.284 191,138.5C 173.072,176.715 142.905,194.548 100.5,192C 59.6118,184.278 35.2785,160.111 27.5,119.5 Z"/></g>
<g><path style="opacity:1" fill="#b9e4ac" d="M 135.5,132.5 C 137.82,134.226 140.487,134.893 143.5,134.5C 141.574,136.293 139.241,137.293 136.5,137.5C 136.371,135.784 136.038,134.117 135.5,132.5 Z"/></g>
<g><path style="opacity:1" fill="#94e284" d="M 127.5,121.5 C 129.074,121.937 130.241,122.937 131,124.5C 132.747,127.067 134.247,129.734 135.5,132.5C 131.76,129.605 129.093,125.938 127.5,121.5 Z"/></g>
<g><path style="opacity:1" fill="#1f1f1f" d="M 128.5,172.5 C 130.199,172.34 131.866,172.506 133.5,173C 135.545,175.586 137.211,178.42 138.5,181.5C 136.269,181.887 133.936,182.053 131.5,182C 130.692,183.706 129.359,184.539 127.5,184.5C 128.272,180.548 128.605,176.548 128.5,172.5 Z"/></g>
<g><path style="opacity:1" fill="#1e1e1e" d="M 86.5,171.5 C 89.5448,171.508 92.5448,171.841 95.5,172.5C 94.2947,176.071 93.628,179.571 93.5,183C 90.4686,183.495 87.4686,183.329 84.5,182.5C 84.4238,178.616 85.0905,174.95 86.5,171.5 Z"/></g>
<g><path style="opacity:1" fill="#bcbcbc" d="M 89.5,174.5 C 90.675,174.281 91.675,174.614 92.5,175.5C 90.9483,176.798 89.9483,176.465 89.5,174.5 Z"/></g>
<g><path style="opacity:1" fill="#070707" d="M 108.5,174.5 C 110.5,174.5 112.5,174.5 114.5,174.5C 113.817,176.176 112.483,176.843 110.5,176.5C 110.5,177.5 110.5,178.5 110.5,179.5C 112.099,179.232 113.432,179.566 114.5,180.5C 113.167,180.5 111.833,180.5 110.5,180.5C 110.5,181.833 110.5,183.167 110.5,184.5C 111.873,184.343 113.207,184.51 114.5,185C 112.527,185.495 110.527,185.662 108.5,185.5C 108.5,181.833 108.5,178.167 108.5,174.5 Z"/></g>
<g><path style="opacity:1" fill="#c8c8c8" d="M 114.5,174.5 C 115.167,174.5 115.833,174.5 116.5,174.5C 117.335,175.943 118.668,176.943 120.5,177.5C 118.506,179.816 117.506,182.482 117.5,185.5C 120.167,185.5 122.833,185.5 125.5,185.5C 122.713,186.477 119.713,186.81 116.5,186.5C 116.923,184.219 116.256,182.552 114.5,181.5C 114.5,181.167 114.5,180.833 114.5,180.5C 113.432,179.566 112.099,179.232 110.5,179.5C 110.5,178.5 110.5,177.5 110.5,176.5C 112.483,176.843 113.817,176.176 114.5,174.5 Z"/></g>
<g><path style="opacity:1" fill="#262626" d="M 125.5,185.5 C 122.833,185.5 120.167,185.5 117.5,185.5C 117.506,182.482 118.506,179.816 120.5,177.5C 118.668,176.943 117.335,175.943 116.5,174.5C 118.948,173.527 121.615,173.194 124.5,173.5C 124.076,176.354 123.076,179.021 121.5,181.5C 122.689,182.429 124.022,182.762 125.5,182.5C 125.5,183.5 125.5,184.5 125.5,185.5 Z"/></g>
<g><path style="opacity:1" fill="#b4b4b4" d="M 131.5,176.5 C 133.332,177.14 133.665,178.14 132.5,179.5C 131.614,178.675 131.281,177.675 131.5,176.5 Z"/></g>
<g><path style="opacity:1" fill="#a3a3a3" d="M 88.5,178.5 C 89.5,178.5 90.5,178.5 91.5,178.5C 91.5,179.5 91.5,180.5 91.5,181.5C 90.5,181.5 89.5,181.5 88.5,181.5C 88.5,180.5 88.5,179.5 88.5,178.5 Z"/></g>
<g><path style="opacity:1" fill="#292929" d="M 96.5,173.5 C 99.2165,173.678 101.883,174.178 104.5,175C 105.851,177.495 105.518,179.828 103.5,182C 104.364,185.91 103.197,186.41 100,183.5C 99.2904,184.973 98.1238,185.64 96.5,185.5C 96.5,181.5 96.5,177.5 96.5,173.5 Z"/></g>
<g><path style="opacity:1" fill="#cecece" d="M 99.5,176.5 C 100.675,176.281 101.675,176.614 102.5,177.5C 100.948,178.798 99.9483,178.465 99.5,176.5 Z"/></g>
<g><path style="opacity:1" fill="#464646" d="M 108.5,174.5 C 108.5,178.167 108.5,181.833 108.5,185.5C 110.527,185.662 112.527,185.495 114.5,185C 113.207,184.51 111.873,184.343 110.5,184.5C 110.5,183.167 110.5,181.833 110.5,180.5C 111.833,180.5 113.167,180.5 114.5,180.5C 114.5,180.833 114.5,181.167 114.5,181.5C 113.325,181.281 112.325,181.614 111.5,182.5C 112.689,183.429 114.022,183.762 115.5,183.5C 115.5,184.5 115.5,185.5 115.5,186.5C 112.833,186.5 110.167,186.5 107.5,186.5C 107.183,182.298 107.517,178.298 108.5,174.5 Z"/></g>
</svg>
